<mxfile host="app.diagrams.net" agent="Mozilla/5.0 (Macintosh; Intel Mac OS X 10_15_7) AppleWebKit/537.36 (KHTML, like Gecko) Chrome/131.0.0.0 Safari/537.36" version="26.0.4">
  <diagram name="PÃ¡gina-1" id="mKFV3GkGIVsweVjsT-gA">
    <mxGraphModel dx="1773" dy="931" grid="1" gridSize="10" guides="1" tooltips="1" connect="1" arrows="1" fold="1" page="1" pageScale="1" pageWidth="827" pageHeight="1169" math="0" shadow="0">
      <root>
        <mxCell id="0" />
        <mxCell id="1" parent="0" />
        <mxCell id="U4Y2dQrhD2sK25j-tf1p-17" value="" style="rounded=0;whiteSpace=wrap;html=1;" vertex="1" parent="1">
          <mxGeometry x="18.25" y="50" width="711.75" height="500" as="geometry" />
        </mxCell>
        <mxCell id="U4Y2dQrhD2sK25j-tf1p-5" style="edgeStyle=orthogonalEdgeStyle;rounded=0;orthogonalLoop=1;jettySize=auto;html=1;" edge="1" parent="1" source="U4Y2dQrhD2sK25j-tf1p-3" target="U4Y2dQrhD2sK25j-tf1p-6">
          <mxGeometry relative="1" as="geometry">
            <mxPoint x="100" y="210" as="targetPoint" />
          </mxGeometry>
        </mxCell>
        <mxCell id="U4Y2dQrhD2sK25j-tf1p-3" value="" style="verticalLabelPosition=bottom;aspect=fixed;html=1;shape=mxgraph.salesforce.web;" vertex="1" parent="1">
          <mxGeometry x="70" y="90.00000000000001" width="60" height="47.400000000000006" as="geometry" />
        </mxCell>
        <mxCell id="U4Y2dQrhD2sK25j-tf1p-7" style="edgeStyle=orthogonalEdgeStyle;rounded=0;orthogonalLoop=1;jettySize=auto;html=1;" edge="1" parent="1" source="U4Y2dQrhD2sK25j-tf1p-6" target="U4Y2dQrhD2sK25j-tf1p-8">
          <mxGeometry relative="1" as="geometry">
            <mxPoint x="290" y="236.5" as="targetPoint" />
          </mxGeometry>
        </mxCell>
        <mxCell id="U4Y2dQrhD2sK25j-tf1p-6" value="Cloud Front" style="outlineConnect=0;dashed=0;verticalLabelPosition=bottom;verticalAlign=top;align=center;html=1;shape=mxgraph.aws3.cloudfront;fillColor=#F58536;gradientColor=none;" vertex="1" parent="1">
          <mxGeometry x="61.75" y="190" width="76.5" height="93" as="geometry" />
        </mxCell>
        <mxCell id="U4Y2dQrhD2sK25j-tf1p-9" style="edgeStyle=orthogonalEdgeStyle;rounded=0;orthogonalLoop=1;jettySize=auto;html=1;" edge="1" parent="1" source="U4Y2dQrhD2sK25j-tf1p-8" target="U4Y2dQrhD2sK25j-tf1p-10">
          <mxGeometry relative="1" as="geometry">
            <mxPoint x="510" y="236.5" as="targetPoint" />
          </mxGeometry>
        </mxCell>
        <mxCell id="U4Y2dQrhD2sK25j-tf1p-8" value="S3" style="outlineConnect=0;dashed=0;verticalLabelPosition=bottom;verticalAlign=top;align=center;html=1;shape=mxgraph.aws3.s3;fillColor=#E05243;gradientColor=none;" vertex="1" parent="1">
          <mxGeometry x="251.75" y="190" width="76.5" height="93" as="geometry" />
        </mxCell>
        <mxCell id="U4Y2dQrhD2sK25j-tf1p-12" style="edgeStyle=orthogonalEdgeStyle;rounded=0;orthogonalLoop=1;jettySize=auto;html=1;" edge="1" parent="1" source="U4Y2dQrhD2sK25j-tf1p-10">
          <mxGeometry relative="1" as="geometry">
            <mxPoint x="510.0999999999999" y="373.5" as="targetPoint" />
          </mxGeometry>
        </mxCell>
        <mxCell id="U4Y2dQrhD2sK25j-tf1p-10" value="ECS" style="outlineConnect=0;dashed=0;verticalLabelPosition=bottom;verticalAlign=top;align=center;html=1;shape=mxgraph.aws3.ecs;fillColor=#F58534;gradientColor=none;" vertex="1" parent="1">
          <mxGeometry x="474" y="202.75" width="72" height="67.5" as="geometry" />
        </mxCell>
        <mxCell id="U4Y2dQrhD2sK25j-tf1p-16" value="Letter To The Future" style="outlineConnect=0;dashed=0;verticalLabelPosition=bottom;verticalAlign=top;align=center;html=1;shape=mxgraph.aws3.s3;fillColor=#E05243;gradientColor=none;" vertex="1" parent="1">
          <mxGeometry x="471.75" y="380" width="76.5" height="93" as="geometry" />
        </mxCell>
        <mxCell id="U4Y2dQrhD2sK25j-tf1p-18" value="Register new Letter" style="text;html=1;align=center;verticalAlign=middle;whiteSpace=wrap;rounded=0;" vertex="1" parent="1">
          <mxGeometry x="18.25" y="20" width="121.75" height="30" as="geometry" />
        </mxCell>
        <mxCell id="U4Y2dQrhD2sK25j-tf1p-19" value="" style="rounded=0;whiteSpace=wrap;html=1;" vertex="1" parent="1">
          <mxGeometry x="9.999999999999998" y="600" width="710.87" height="410" as="geometry" />
        </mxCell>
        <mxCell id="U4Y2dQrhD2sK25j-tf1p-20" value="Send the letter" style="text;html=1;align=center;verticalAlign=middle;whiteSpace=wrap;rounded=0;" vertex="1" parent="1">
          <mxGeometry x="18.25" y="570" width="90.87" height="30" as="geometry" />
        </mxCell>
        <mxCell id="U4Y2dQrhD2sK25j-tf1p-21" value="" style="points=[];aspect=fixed;html=1;align=center;shadow=0;dashed=0;fillColor=#FF6A00;strokeColor=none;shape=mxgraph.alibaba_cloud.eventbridge;" vertex="1" parent="1">
          <mxGeometry x="344.68" y="700" width="58.9" height="58.9" as="geometry" />
        </mxCell>
        <mxCell id="U4Y2dQrhD2sK25j-tf1p-22" value="Event Bridge" style="text;html=1;align=center;verticalAlign=middle;whiteSpace=wrap;rounded=0;" vertex="1" parent="1">
          <mxGeometry x="324.13" y="760" width="100" height="30" as="geometry" />
        </mxCell>
        <mxCell id="U4Y2dQrhD2sK25j-tf1p-24" value="S3 File - Letter to the Future" style="outlineConnect=0;dashed=0;verticalLabelPosition=bottom;verticalAlign=top;align=center;html=1;shape=mxgraph.aws3.s3;fillColor=#E05243;gradientColor=none;" vertex="1" parent="1">
          <mxGeometry x="53.5" y="682.95" width="76.5" height="93" as="geometry" />
        </mxCell>
        <mxCell id="U4Y2dQrhD2sK25j-tf1p-27" style="edgeStyle=orthogonalEdgeStyle;rounded=0;orthogonalLoop=1;jettySize=auto;html=1;entryX=0.09;entryY=0.509;entryDx=0;entryDy=0;entryPerimeter=0;" edge="1" parent="1" source="U4Y2dQrhD2sK25j-tf1p-24" target="U4Y2dQrhD2sK25j-tf1p-21">
          <mxGeometry relative="1" as="geometry" />
        </mxCell>
        <mxCell id="U4Y2dQrhD2sK25j-tf1p-31" value="Schedule Lambda" style="endArrow=classic;html=1;rounded=0;exitX=0.786;exitY=0.594;exitDx=0;exitDy=0;exitPerimeter=0;entryX=0;entryY=0.5;entryDx=0;entryDy=0;entryPerimeter=0;" edge="1" parent="1" source="U4Y2dQrhD2sK25j-tf1p-21" target="U4Y2dQrhD2sK25j-tf1p-32">
          <mxGeometry width="50" height="50" relative="1" as="geometry">
            <mxPoint x="390" y="760" as="sourcePoint" />
            <mxPoint x="530" y="735" as="targetPoint" />
          </mxGeometry>
        </mxCell>
        <mxCell id="U4Y2dQrhD2sK25j-tf1p-32" value="" style="outlineConnect=0;dashed=0;verticalLabelPosition=bottom;verticalAlign=top;align=center;html=1;shape=mxgraph.aws3.lambda_function;fillColor=#F58534;gradientColor=none;" vertex="1" parent="1">
          <mxGeometry x="560" y="700" width="69" height="72" as="geometry" />
        </mxCell>
        <mxCell id="U4Y2dQrhD2sK25j-tf1p-33" style="edgeStyle=orthogonalEdgeStyle;rounded=0;orthogonalLoop=1;jettySize=auto;html=1;entryX=0.822;entryY=0.707;entryDx=0;entryDy=0;entryPerimeter=0;" edge="1" parent="1" source="U4Y2dQrhD2sK25j-tf1p-32" target="U4Y2dQrhD2sK25j-tf1p-19">
          <mxGeometry relative="1" as="geometry" />
        </mxCell>
        <mxCell id="U4Y2dQrhD2sK25j-tf1p-34" value="Send Grid Email" style="image;aspect=fixed;html=1;points=[];align=center;fontSize=12;image=img/lib/azure2/integration/SendGrid_Accounts.svg;" vertex="1" parent="1">
          <mxGeometry x="561.1" y="890" width="66.8" height="68" as="geometry" />
        </mxCell>
      </root>
    </mxGraphModel>
  </diagram>
</mxfile>
